<svg xmlns="http://www.w3.org/2000/svg" style="display: none;">
    <symbol id="eye" width="24" height="24" viewBox="0 0 24 24" fill="none" xmlns="http://www.w3.org/2000/svg">
        <path d="M17.389 9.27219C17.3644 9.21664 16.7688 7.89547 15.4448 6.57148C13.6807 4.80734 11.4525 3.875 8.99999 3.875C6.54749 3.875 4.31929 4.80734 2.55515 6.57148C1.23117 7.89547 0.632806 9.21875 0.611009 9.27219C0.579026 9.34413 0.5625 9.42198 0.5625 9.5007C0.5625 9.57943 0.579026 9.65728 0.611009 9.72922C0.635618 9.78477 1.23117 11.1052 2.55515 12.4292C4.31929 14.1927 6.54749 15.125 8.99999 15.125C11.4525 15.125 13.6807 14.1927 15.4448 12.4292C16.7688 11.1052 17.3644 9.78477 17.389 9.72922C17.421 9.65728 17.4375 9.57943 17.4375 9.5007C17.4375 9.42198 17.421 9.34413 17.389 9.27219ZM8.99999 14C6.83577 14 4.94507 13.2132 3.37992 11.6621C2.73771 11.0235 2.19134 10.2952 1.75781 9.5C2.19123 8.70472 2.73761 7.97645 3.37992 7.33789C4.94507 5.7868 6.83577 5 8.99999 5C11.1642 5 13.0549 5.7868 14.6201 7.33789C15.2635 7.9763 15.8111 8.70457 16.2457 9.5C15.7387 10.4464 13.5302 14 8.99999 14ZM8.99999 6.125C8.33248 6.125 7.67996 6.32294 7.12494 6.69379C6.56993 7.06464 6.13735 7.59174 5.8819 8.20844C5.62645 8.82514 5.55962 9.50374 5.68984 10.1584C5.82007 10.8131 6.14151 11.4145 6.61351 11.8865C7.08551 12.3585 7.68688 12.6799 8.34156 12.8102C8.99625 12.9404 9.67485 12.8735 10.2915 12.6181C10.9083 12.3626 11.4354 11.9301 11.8062 11.375C12.1771 10.82 12.375 10.1675 12.375 9.5C12.3741 8.60518 12.0182 7.74728 11.3855 7.11454C10.7527 6.48181 9.89481 6.12593 8.99999 6.125ZM8.99999 11.75C8.55499 11.75 8.11997 11.618 7.74996 11.3708C7.37995 11.1236 7.09156 10.7722 6.92126 10.361C6.75097 9.9499 6.70641 9.4975 6.79323 9.06105C6.88004 8.62459 7.09433 8.22368 7.409 7.90901C7.72367 7.59434 8.12458 7.38005 8.56104 7.29323C8.9975 7.20642 9.4499 7.25097 9.86103 7.42127C10.2722 7.59157 10.6236 7.87996 10.8708 8.24997C11.118 8.61998 11.25 9.05499 11.25 9.5C11.25 10.0967 11.0129 10.669 10.591 11.091C10.169 11.5129 9.59673 11.75 8.99999 11.75Z" fill="white"/>
    </symbol>
    <symbol id="home" viewBox="0 0 24 24" width="24" height="24">
        <path d="M 12 2 A 1 1 0 0 0 11.289062 2.296875 L 1.203125 11.097656 A 0.5 0.5 0 0 0 1 11.5 A 0.5 0.5 0 0 0 1.5 12 L 4 12 L 4 20 C 4 20.552 4.448 21 5 21 L 9 21 C 9.552 21 10 20.552 10 20 L 10 14 L 14 14 L 14 20 C 14 20.552 14.448 21 15 21 L 19 21 C 19.552 21 20 20.552 20 20 L 20 12 L 22.5 12 A 0.5 0.5 0 0 0 23 11.5 A 0.5 0.5 0 0 0 22.796875 11.097656 L 12.716797 2.3027344 A 1 1 0 0 0 12.710938 2.296875 A 1 1 0 0 0 12 2 z" fill="white" />
    </symbol>
    <symbol id="person" width="24" height="24" viewBox="0 0 24 24" fill="none" xmlns="http://www.w3.org/2000/svg">
        <path fill-rule="evenodd" clip-rule="evenodd" d="M0 10.3448C0 12.1462 2.36155 12.6346 4.09987 12.6346C5.33031 12.6346 6.73859 12.6346 7.73032 12.0884C8.12925 11.8678 8.39681 11.6735 8.63232 11.2621C8.84701 10.8875 8.90148 10.2958 8.77331 9.78459C8.41443 8.34032 6.37331 7.02734 4.66383 7.02734H4.22484C2.4 7.02734 0 8.52415 0 10.3448Z" fill="white"/>
        <path fill-rule="evenodd" clip-rule="evenodd" d="M1.81543 3.71089C1.81543 5.21469 2.95295 6.51541 4.25709 6.51541H4.47497C5.82398 6.51541 6.90702 5.20594 6.94067 3.74242C6.97271 2.3034 5.79674 0.941406 4.50702 0.941406H4.25709C2.94654 0.941406 1.81543 2.25437 1.81543 3.71089Z" fill="white"/>
        <path fill-rule="evenodd" clip-rule="evenodd" d="M7.69922 6.89137C7.74248 6.95439 8.23113 7.28 8.45864 7.49883C9.16518 8.18333 9.87012 9.21095 9.82686 10.4136L9.79162 10.9248L10.2034 10.9266C11.9193 10.9266 14.2167 10.5694 13.9844 8.64025C13.8178 7.2555 11.908 6.07031 10.3908 6.07031C9.73554 6.07031 9.37986 6.11233 8.78227 6.33115C8.25036 6.52547 7.75209 6.87561 7.69922 6.89137Z" fill="white"/>
        <path fill-rule="evenodd" clip-rule="evenodd" d="M8.01172 2.89131V3.2327C8.01172 4.3426 9.05311 5.45424 10.0769 5.45424C10.8587 5.45424 11.2705 5.29143 11.8056 4.71197C13.137 3.2712 12.1709 0.634766 10.2323 0.634766C9.02747 0.634766 8.01172 1.74465 8.01172 2.89131Z" fill="white"/>
    </symbol>
</svg>
