<svg xmlns="http://www.w3.org/2000/svg" style="display: none;">
    <symbol id="eye" width="24" height="24" viewBox="0 0 24 24" fill="none">
        <path d="M17.389 9.27219C17.3644 9.21664 16.7688 7.89547 15.4448 6.57148C13.6807 4.80734 11.4525 3.875 8.99999 3.875C6.54749 3.875 4.31929 4.80734 2.55515 6.57148C1.23117 7.89547 0.632806 9.21875 0.611009 9.27219C0.579026 9.34413 0.5625 9.42198 0.5625 9.5007C0.5625 9.57943 0.579026 9.65728 0.611009 9.72922C0.635618 9.78477 1.23117 11.1052 2.55515 12.4292C4.31929 14.1927 6.54749 15.125 8.99999 15.125C11.4525 15.125 13.6807 14.1927 15.4448 12.4292C16.7688 11.1052 17.3644 9.78477 17.389 9.72922C17.421 9.65728 17.4375 9.57943 17.4375 9.5007C17.4375 9.42198 17.421 9.34413 17.389 9.27219ZM8.99999 14C6.83577 14 4.94507 13.2132 3.37992 11.6621C2.73771 11.0235 2.19134 10.2952 1.75781 9.5C2.19123 8.70472 2.73761 7.97645 3.37992 7.33789C4.94507 5.7868 6.83577 5 8.99999 5C11.1642 5 13.0549 5.7868 14.6201 7.33789C15.2635 7.9763 15.8111 8.70457 16.2457 9.5C15.7387 10.4464 13.5302 14 8.99999 14ZM8.99999 6.125C8.33248 6.125 7.67996 6.32294 7.12494 6.69379C6.56993 7.06464 6.13735 7.59174 5.8819 8.20844C5.62645 8.82514 5.55962 9.50374 5.68984 10.1584C5.82007 10.8131 6.14151 11.4145 6.61351 11.8865C7.08551 12.3585 7.68688 12.6799 8.34156 12.8102C8.99625 12.9404 9.67485 12.8735 10.2915 12.6181C10.9083 12.3626 11.4354 11.9301 11.8062 11.375C12.1771 10.82 12.375 10.1675 12.375 9.5C12.3741 8.60518 12.0182 7.74728 11.3855 7.11454C10.7527 6.48181 9.89481 6.12593 8.99999 6.125ZM8.99999 11.75C8.55499 11.75 8.11997 11.618 7.74996 11.3708C7.37995 11.1236 7.09156 10.7722 6.92126 10.361C6.75097 9.9499 6.70641 9.4975 6.79323 9.06105C6.88004 8.62459 7.09433 8.22368 7.409 7.90901C7.72367 7.59434 8.12458 7.38005 8.56104 7.29323C8.9975 7.20642 9.4499 7.25097 9.86103 7.42127C10.2722 7.59157 10.6236 7.87996 10.8708 8.24997C11.118 8.61998 11.25 9.05499 11.25 9.5C11.25 10.0967 11.0129 10.669 10.591 11.091C10.169 11.5129 9.59673 11.75 8.99999 11.75Z" fill="#868484"/>
    </symbol>
    <symbol id="eye-close" width="24" height="25" viewBox="0 0 24 25" fill="none" xmlns="http://www.w3.org/2000/svg">
        <path d="M23.6613 12.3854C23.6267 12.3073 22.7893 10.4495 20.9275 8.58769C18.4468 6.10696 15.3135 4.7959 11.8648 4.7959C8.41608 4.7959 5.28279 6.10696 2.80206 8.58769C0.940275 10.4495 0.0988637 12.3103 0.068213 12.3854C0.0232388 12.4866 0 12.596 0 12.7067C0 12.8174 0.0232388 12.9269 0.068213 13.0281C0.102819 13.1062 0.940275 14.963 2.80206 16.8248C5.28279 19.3046 8.41608 20.6156 11.8648 20.6156C15.3135 20.6156 18.4468 19.3046 20.9275 16.8248C22.7893 14.963 23.6267 13.1062 23.6613 13.0281C23.7063 12.9269 23.7295 12.8174 23.7295 12.7067C23.7295 12.596 23.7063 12.4866 23.6613 12.3854ZM11.8648 19.0336C8.82146 19.0336 6.16276 17.9272 3.96184 15.7461C3.05878 14.848 2.29047 13.824 1.68084 12.7058C2.29031 11.5874 3.05863 10.5633 3.96184 9.6654C6.16276 7.48426 8.82146 6.37787 11.8648 6.37787C14.9081 6.37787 17.5668 7.48426 19.7677 9.6654C20.6725 10.5631 21.4425 11.5872 22.0537 12.7058C21.3408 14.0366 18.2352 19.0336 11.8648 19.0336ZM11.8648 7.95984C10.9261 7.95984 10.0085 8.23818 9.22809 8.75967C8.44763 9.28116 7.83933 10.0224 7.48012 10.8896C7.12091 11.7568 7.02693 12.711 7.21005 13.6316C7.39317 14.5523 7.84518 15.3979 8.50891 16.0616C9.17264 16.7254 10.0183 17.1774 10.9389 17.3605C11.8595 17.5436 12.8138 17.4496 13.681 17.0904C14.5482 16.7312 15.2894 16.1229 15.8109 15.3424C16.3323 14.562 16.6107 13.6444 16.6107 12.7058C16.6094 11.4475 16.1089 10.2411 15.2192 9.35133C14.3295 8.46158 13.1231 7.96115 11.8648 7.95984ZM11.8648 15.8697C11.239 15.8697 10.6273 15.6841 10.107 15.3365C9.58668 14.9888 9.18114 14.4947 8.94167 13.9165C8.7022 13.3384 8.63955 12.7022 8.76163 12.0885C8.88371 11.4748 9.18504 10.911 9.62753 10.4685C10.07 10.026 10.6338 9.72469 11.2475 9.60261C11.8613 9.48052 12.4974 9.54318 13.0756 9.78265C13.6537 10.0221 14.1478 10.4277 14.4955 10.948C14.8432 11.4683 15.0287 12.08 15.0287 12.7058C15.0287 13.5449 14.6954 14.3496 14.102 14.943C13.5087 15.5364 12.7039 15.8697 11.8648 15.8697Z" fill="#868484"/>
        <path d="M20.4043 1.5L4.4043 23.5" stroke="#868484" stroke-width="2" stroke-linecap="round"/>
    </symbol>
    <symbol id="home" viewBox="0 0 24 24" width="24" height="24">
        <path d="M 12 2 A 1 1 0 0 0 11.289062 2.296875 L 1.203125 11.097656 A 0.5 0.5 0 0 0 1 11.5 A 0.5 0.5 0 0 0 1.5 12 L 4 12 L 4 20 C 4 20.552 4.448 21 5 21 L 9 21 C 9.552 21 10 20.552 10 20 L 10 14 L 14 14 L 14 20 C 14 20.552 14.448 21 15 21 L 19 21 C 19.552 21 20 20.552 20 20 L 20 12 L 22.5 12 A 0.5 0.5 0 0 0 23 11.5 A 0.5 0.5 0 0 0 22.796875 11.097656 L 12.716797 2.3027344 A 1 1 0 0 0 12.710938 2.296875 A 1 1 0 0 0 12 2 z" fill="white" />
    </symbol>
    <symbol id="person" width="24" height="24" viewBox="0 0 24 24" fill="none">
        <path fill-rule="evenodd" clip-rule="evenodd" d="M0 10.3448C0 12.1462 2.36155 12.6346 4.09987 12.6346C5.33031 12.6346 6.73859 12.6346 7.73032 12.0884C8.12925 11.8678 8.39681 11.6735 8.63232 11.2621C8.84701 10.8875 8.90148 10.2958 8.77331 9.78459C8.41443 8.34032 6.37331 7.02734 4.66383 7.02734H4.22484C2.4 7.02734 0 8.52415 0 10.3448Z" fill="white"/>
        <path fill-rule="evenodd" clip-rule="evenodd" d="M1.81543 3.71089C1.81543 5.21469 2.95295 6.51541 4.25709 6.51541H4.47497C5.82398 6.51541 6.90702 5.20594 6.94067 3.74242C6.97271 2.3034 5.79674 0.941406 4.50702 0.941406H4.25709C2.94654 0.941406 1.81543 2.25437 1.81543 3.71089Z" fill="white"/>
        <path fill-rule="evenodd" clip-rule="evenodd" d="M7.69922 6.89137C7.74248 6.95439 8.23113 7.28 8.45864 7.49883C9.16518 8.18333 9.87012 9.21095 9.82686 10.4136L9.79162 10.9248L10.2034 10.9266C11.9193 10.9266 14.2167 10.5694 13.9844 8.64025C13.8178 7.2555 11.908 6.07031 10.3908 6.07031C9.73554 6.07031 9.37986 6.11233 8.78227 6.33115C8.25036 6.52547 7.75209 6.87561 7.69922 6.89137Z" fill="white"/>
        <path fill-rule="evenodd" clip-rule="evenodd" d="M8.01172 2.89131V3.2327C8.01172 4.3426 9.05311 5.45424 10.0769 5.45424C10.8587 5.45424 11.2705 5.29143 11.8056 4.71197C13.137 3.2712 12.1709 0.634766 10.2323 0.634766C9.02747 0.634766 8.01172 1.74465 8.01172 2.89131Z" fill="white"/>
    </symbol>
    <symbol id="sorting-asc" width="12" height="12" viewBox="0 0 12 12" fill="none">
        <path d="M9.84861 8.48438H2.15173C1.92087 8.48438 1.79196 8.24063 1.93493 8.07422L5.78337 3.61172C5.89353 3.48398 6.10564 3.48398 6.21696 3.61172L10.0654 8.07422C10.2084 8.24063 10.0795 8.48438 9.84861 8.48438Z" fill="#353535"/>
    </symbol>
    <symbol id="sorting-desc" width="12" height="12" viewBox="0 0 12 12" fill="none">
        <path d="M9.32812 4.01562L6 7.87305L2.67188 4.01562H9.32812Z" fill="#EAEAEA" stroke="#EAEAEA"/>
    </symbol>
    <symbol id="arrow-right" width="12" height="19" viewBox="0 0 12 19" fill="none">
        <path fill-rule="evenodd" clip-rule="evenodd" d="M0.73013 0.214037C1.03697 -0.0713458 1.53446 -0.0713458 1.8413 0.214037L11.2699 8.98327C11.5767 9.26865 11.5767 9.73135 11.2699 10.0167L1.8413 18.786C1.53446 19.0713 1.03697 19.0713 0.73013 18.786C0.42329 18.5006 0.42329 18.0379 0.73013 17.7525L9.60312 9.5L0.73013 1.2475C0.42329 0.962118 0.42329 0.49942 0.73013 0.214037Z" fill="#353535"/>
    </symbol>
    <symbol id="arrow-check" viewBox="0 0 24 24" fill="#4CAF50" width="18" height="18">
        <path d="M9 16.17L4.83 12l-1.42 1.41L9 19 21 7l-1.41-1.41z"/>
    </symbol>
    <symbol id="arrow-left" width="24" height="24" viewBox="0 0 24 24" fill="none" xmlns="http://www.w3.org/2000/svg">
        <path fill-rule="evenodd" clip-rule="evenodd"
              d="M8.81171 13.8423C8.56066 14.0526 8.15363 14.0526 7.90257 13.8423L0.188288 7.38075C-0.0627634 7.17047 -0.0627634 6.82953 0.188288 6.61925L7.90258 0.157713C8.15363 -0.0525692 8.56066 -0.0525692 8.81171 0.157713C9.06276 0.367996 9.06276 0.70893 8.81171 0.919213L1.55199 7L8.81171 13.0808C9.06276 13.2911 9.06276 13.632 8.81171 13.8423Z"
              fill="#353535"/>
    </symbol>
    <symbol id="cross" width="24" height="24" viewBox="0 0 24 24" fill="none" xmlns="http://www.w3.org/2000/svg">
        <path d="M23.4639 0.547684C23.2969 0.379224 23.0981 0.245508 22.879 0.154255C22.6599 0.0630024 22.425 0.0160199 22.1877 0.0160199C21.9503 0.0160199 21.7154 0.0630024 21.4963 0.154255C21.2772 0.245508 21.0784 0.379224 20.9114 0.547684L12.0059 9.46013L3.08909 0.547684C2.92328 0.376271 2.72498 0.23957 2.50576 0.145549C2.28654 0.0515294 2.05079 0.00207285 1.81225 6.37739e-05C1.57371 -0.0019453 1.33716 0.0435333 1.11639 0.133848C0.895613 0.224162 0.69504 0.357504 0.526361 0.5261C0.357682 0.694695 0.224273 0.895169 0.133914 1.11583C0.0435549 1.3365 -0.00194626 1.57293 6.38055e-05 1.81135C0.00207387 2.04977 0.0515549 2.28541 0.145622 2.50452C0.239688 2.72363 0.376458 2.92183 0.547956 3.08756L9.46481 12.0114L0.547956 20.9124C0.376458 21.0782 0.239688 21.2764 0.145622 21.4955C0.0515549 21.7146 0.00207387 21.9502 6.38055e-05 22.1886C-0.00194626 22.4271 0.0435549 22.6635 0.133914 22.8842C0.224273 23.1048 0.357682 23.3053 0.526361 23.4739C0.69504 23.6425 0.895613 23.7758 1.11639 23.8662C1.33716 23.9565 1.57371 24.0019 1.81225 23.9999C2.05079 23.9979 2.28654 23.9485 2.50576 23.8545C2.72498 23.7604 2.92328 23.6237 3.08909 23.4523L12.0059 14.5513L20.9228 23.4523C21.2598 23.7906 21.7174 23.9813 22.1951 23.9824C22.6727 23.9835 23.1312 23.7948 23.4697 23.458C23.8082 23.1212 23.9989 22.6638 24 22.1864C24.0011 21.709 23.8124 21.2508 23.4754 20.9124L14.5471 12L23.4639 3.099C24.1622 2.38967 24.1622 1.25702 23.4639 0.547684Z" fill="white"/>
    </svg>
</svg>
